<?xml version="1.0" encoding="UTF-8" standalone="no"?>
<svg width="206px" height="45px" viewBox="0 0 206 45" version="1.1" xmlns="http://www.w3.org/2000/svg" xmlns:xlink="http://www.w3.org/1999/xlink" xmlns:sketch="http://www.bohemiancoding.com/sketch/ns">
    <!-- Generator: Sketch 3.3 (11970) - http://www.bohemiancoding.com/sketch -->
    <title>logo_horisontal</title>
    <desc>Created with Sketch.</desc>
    <defs></defs>
    <g id="Page-1" stroke="none" stroke-width="1" fill="none" fill-rule="evenodd" sketch:type="MSPage">
        <g id="11.about" sketch:type="MSArtboardGroup" transform="translate(-199.000000, -799.000000)">
            <g id="Group-+-Fill-1-+-Fill-2-Copy-+-LOSTFound" sketch:type="MSLayerGroup" transform="translate(0.000000, 770.000000)">
                <g id="logo_horisontal" transform="translate(199.000000, 29.000000)" sketch:type="MSShapeGroup">
                    <rect id="Rectangle-558" opacity="0.5" fill="#FFFFFF" x="24" y="0" width="182" height="45"></rect>
                    <path d="M10.0577405,0 L10.0577405,18.7200241 C10.0577405,26.7090074 15.5763541,33.6291991 23.3419392,35.3779347 L23.3419392,44.8648073 L19.5640483,43.8786728 C8.13012827,40.8936753 0.148295455,30.5320755 0.148295455,18.6725862 L0.148295455,0 L10.0577405,0" id="Fill-1" fill="#2F90AD"></path>
                    <path d="M49.9819417,0 L49.9819417,4.93642257 C49.9819417,7.75035594 47.7278097,10.0410343 44.9244657,10.0769721 L33.5177557,10.2214422 L33.5177557,17.5887007 L47.8481064,17.1746968 L47.8481064,21.9328676 C47.8481064,24.4672045 45.8675063,26.5566309 43.3455708,26.6816946 L33.5256322,27.1690118 L33.5256322,33.6119489 C33.5256322,38.0380541 30.7666835,41.9904984 26.6221739,43.5020442 L23.3419392,44.6980557 L23.3419392,0 L49.9819417,0" id="Fill-2" fill="#FFA500"></path>
                    <path d="M62.336,41.168 C61.8639976,41.168 61.4460018,41.0820009 61.082,40.91 C60.7179982,40.7379991 60.4120012,40.5040015 60.164,40.208 C59.9159988,39.9119985 59.7280006,39.566002 59.6,39.17 C59.4719994,38.773998 59.408,38.3520022 59.408,37.904 C59.408,37.4639978 59.4719994,37.044002 59.6,36.644 C59.7280006,36.243998 59.9159988,35.8960015 60.164,35.6 C60.4120012,35.3039985 60.7179982,35.0680009 61.082,34.892 C61.4460018,34.7159991 61.8639976,34.628 62.336,34.628 C63.0000033,34.628 63.5619977,34.8039982 64.022,35.156 C64.4820023,35.5080018 64.7559996,36.0399964 64.844,36.752 L64.088,36.752 C63.9839995,36.2879977 63.7920014,35.9240013 63.512,35.66 C63.2319986,35.3959987 62.8400025,35.264 62.336,35.264 C61.9759982,35.264 61.6600014,35.3399992 61.388,35.492 C61.1159986,35.6440008 60.8900009,35.8439988 60.71,36.092 C60.5299991,36.3400012 60.3940005,36.6219984 60.302,36.938 C60.2099995,37.2540016 60.164,37.5759984 60.164,37.904 C60.164,38.2320016 60.2099995,38.5539984 60.302,38.87 C60.3940005,39.1860016 60.5299991,39.4679988 60.71,39.716 C60.8900009,39.9640012 61.1159986,40.1639992 61.388,40.316 C61.6600014,40.4680008 61.9759982,40.544 62.336,40.544 C62.5680012,40.544 62.787999,40.5000004 62.996,40.412 C63.204001,40.3239996 63.3879992,40.2020008 63.548,40.046 C63.7080008,39.8899992 63.8399995,39.7040011 63.944,39.488 C64.0480005,39.2719989 64.1119999,39.0360013 64.136,38.78 L64.892,38.78 C64.7879995,39.5320038 64.5120022,40.1179979 64.064,40.538 C63.6159978,40.9580021 63.0400035,41.168 62.336,41.168 L62.336,41.168 Z M69.432,41.168 C68.9359975,41.168 68.5120018,41.0820009 68.16,40.91 C67.8079982,40.7379991 67.5200011,40.5020015 67.296,40.202 C67.0719989,39.9019985 66.9060005,39.556002 66.798,39.164 C66.6899995,38.771998 66.636,38.3520022 66.636,37.904 C66.636,37.495998 66.6899995,37.096002 66.798,36.704 C66.9060005,36.311998 67.0719989,35.9620015 67.296,35.654 C67.5200011,35.3459985 67.8079982,35.0980009 68.16,34.91 C68.5120018,34.7219991 68.9359975,34.628 69.432,34.628 C69.9280025,34.628 70.3519982,34.727999 70.704,34.928 C71.0560018,35.128001 71.3419989,35.3899984 71.562,35.714 C71.7820011,36.0380016 71.9399995,36.4099979 72.036,36.83 C72.1320005,37.2500021 72.1720001,37.6759978 72.156,38.108 L67.392,38.108 C67.392,38.3880014 67.4299996,38.6719986 67.506,38.96 C67.5820004,39.2480014 67.7039992,39.5079988 67.872,39.74 C68.0400008,39.9720012 68.2519987,40.1639992 68.508,40.316 C68.7640013,40.4680008 69.0719982,40.544 69.432,40.544 C69.9840028,40.544 70.4159984,40.4000014 70.728,40.112 C71.0400016,39.8239986 71.2559994,39.4400024 71.376,38.96 L72.132,38.96 C71.9719992,39.6640035 71.6780021,40.2079981 71.25,40.592 C70.8219979,40.9760019 70.2160039,41.168 69.432,41.168 L69.432,41.168 Z M71.4,37.472 C71.392,37.1839986 71.3420005,36.9080013 71.25,36.644 C71.1579995,36.3799987 71.0280008,36.146001 70.86,35.942 C70.6919992,35.737999 70.4880012,35.5740006 70.248,35.45 C70.0079988,35.3259994 69.7360015,35.264 69.432,35.264 C69.1199984,35.264 68.8440012,35.3259994 68.604,35.45 C68.3639988,35.5740006 68.1600008,35.737999 67.992,35.942 C67.8239992,36.146001 67.6900005,36.3819987 67.59,36.65 C67.4899995,36.9180013 67.4240002,37.1919986 67.392,37.472 L71.4,37.472 Z M74.176,34.808 L74.872,34.808 L74.872,35.984 L74.896,35.984 C75.0720009,35.5519978 75.357998,35.2180012 75.754,34.982 C76.150002,34.7459988 76.5999975,34.628 77.104,34.628 C77.5760024,34.628 77.9859983,34.7159991 78.334,34.892 C78.6820017,35.0680009 78.9719988,35.3059985 79.204,35.606 C79.4360012,35.9060015 79.6079994,36.253998 79.72,36.65 C79.8320006,37.046002 79.888,37.4639978 79.888,37.904 C79.888,38.3520022 79.8320006,38.771998 79.72,39.164 C79.6079994,39.556002 79.4360012,39.9019985 79.204,40.202 C78.9719988,40.5020015 78.6820017,40.7379991 78.334,40.91 C77.9859983,41.0820009 77.5760024,41.168 77.104,41.168 C76.8719988,41.168 76.6460011,41.1400003 76.426,41.084 C76.2059989,41.0279997 76.000001,40.9440006 75.808,40.832 C75.615999,40.7199994 75.4460007,40.5800008 75.298,40.412 C75.1499993,40.2439992 75.0360004,40.0480011 74.956,39.824 L74.932,39.824 L74.932,43.28 L74.176,43.28 L74.176,34.808 Z M77.104,40.544 C77.4640018,40.544 77.7719987,40.4660008 78.028,40.31 C78.2840013,40.1539992 78.4939992,39.9520012 78.658,39.704 C78.8220008,39.4559988 78.9419996,39.1740016 79.018,38.858 C79.0940004,38.5419984 79.132,38.2240016 79.132,37.904 C79.132,37.5839984 79.0940004,37.2660016 79.018,36.95 C78.9419996,36.6339984 78.8220008,36.3520012 78.658,36.104 C78.4939992,35.8559988 78.2840013,35.6540008 78.028,35.498 C77.7719987,35.3419992 77.4640018,35.264 77.104,35.264 C76.6799979,35.264 76.3300014,35.3359993 76.054,35.48 C75.7779986,35.6240007 75.5560008,35.8159988 75.388,36.056 C75.2199992,36.2960012 75.1020003,36.5759984 75.034,36.896 C74.9659997,37.2160016 74.932,37.5519982 74.932,37.904 C74.932,38.2240016 74.9699996,38.5419984 75.046,38.858 C75.1220004,39.1740016 75.2459991,39.4559988 75.418,39.704 C75.5900009,39.9520012 75.8139986,40.1539992 76.09,40.31 C76.3660014,40.4660008 76.703998,40.544 77.104,40.544 L77.104,40.544 Z M82.052,34.808 L84.884,34.808 C85.5160032,34.808 86.0039983,34.9319988 86.348,35.18 C86.6920017,35.4280012 86.864,35.7919976 86.864,36.272 C86.864,36.6400018 86.7700009,36.9479988 86.582,37.196 C86.3939991,37.4440012 86.1320017,37.6159995 85.796,37.712 L85.796,37.736 C86.204002,37.8080004 86.5239988,37.9679988 86.756,38.216 C86.9880012,38.4640012 87.104,38.8159977 87.104,39.272 C87.104,39.8320028 86.9160019,40.2599985 86.54,40.556 C86.1639981,40.8520015 85.6120036,41 84.884,41 L82.052,41 L82.052,34.808 Z M84.8,40.364 C85.3280026,40.364 85.7179987,40.266001 85.97,40.07 C86.2220013,39.873999 86.348,39.580002 86.348,39.188 C86.348,38.8279982 86.2220013,38.552001 85.97,38.36 C85.7179987,38.167999 85.3280026,38.072 84.8,38.072 L82.808,38.072 L82.808,40.364 L84.8,40.364 Z M84.8,37.484 C85.2320022,37.484 85.5579989,37.3920009 85.778,37.208 C85.9980011,37.0239991 86.108,36.7760016 86.108,36.464 C86.108,35.7839966 85.6720044,35.444 84.8,35.444 L82.808,35.444 L82.808,37.484 L84.8,37.484 Z M89.28,34.808 L90.036,34.808 L90.036,41 L89.28,41 L89.28,34.808 Z M89.28,32.432 L90.036,32.432 L90.036,33.644 L89.28,33.644 L89.28,32.432 Z M95.104,41.168 C94.6319976,41.168 94.2140018,41.0820009 93.85,40.91 C93.4859982,40.7379991 93.1800012,40.5040015 92.932,40.208 C92.6839988,39.9119985 92.4960006,39.566002 92.368,39.17 C92.2399994,38.773998 92.176,38.3520022 92.176,37.904 C92.176,37.4639978 92.2399994,37.044002 92.368,36.644 C92.4960006,36.243998 92.6839988,35.8960015 92.932,35.6 C93.1800012,35.3039985 93.4859982,35.0680009 93.85,34.892 C94.2140018,34.7159991 94.6319976,34.628 95.104,34.628 C95.7680033,34.628 96.3299977,34.8039982 96.79,35.156 C97.2500023,35.5080018 97.5239996,36.0399964 97.612,36.752 L96.856,36.752 C96.7519995,36.2879977 96.5600014,35.9240013 96.28,35.66 C95.9999986,35.3959987 95.6080025,35.264 95.104,35.264 C94.7439982,35.264 94.4280014,35.3399992 94.156,35.492 C93.8839986,35.6440008 93.6580009,35.8439988 93.478,36.092 C93.2979991,36.3400012 93.1620005,36.6219984 93.07,36.938 C92.9779995,37.2540016 92.932,37.5759984 92.932,37.904 C92.932,38.2320016 92.9779995,38.5539984 93.07,38.87 C93.1620005,39.1860016 93.2979991,39.4679988 93.478,39.716 C93.6580009,39.9640012 93.8839986,40.1639992 94.156,40.316 C94.4280014,40.4680008 94.7439982,40.544 95.104,40.544 C95.3360012,40.544 95.555999,40.5000004 95.764,40.412 C95.972001,40.3239996 96.1559992,40.2020008 96.316,40.046 C96.4760008,39.8899992 96.6079995,39.7040011 96.712,39.488 C96.8160005,39.2719989 96.8799999,39.0360013 96.904,38.78 L97.66,38.78 C97.5559995,39.5320038 97.2800022,40.1179979 96.832,40.538 C96.3839978,40.9580021 95.8080035,41.168 95.104,41.168 L95.104,41.168 Z M106.224,41.168 C105.399996,41.168 104.778002,40.9780019 104.358,40.598 C103.937998,40.2179981 103.708,39.7040032 103.668,39.056 L104.424,39.056 C104.456,39.2800011 104.512,39.4839991 104.592,39.668 C104.672,39.8520009 104.783999,40.0079994 104.928,40.136 C105.072001,40.2640006 105.249999,40.3619997 105.462,40.43 C105.674001,40.4980003 105.931998,40.532 106.236,40.532 C106.580002,40.532 106.859999,40.4920004 107.076,40.412 C107.292001,40.3319996 107.461999,40.2260007 107.586,40.094 C107.710001,39.9619993 107.796,39.8160008 107.844,39.656 C107.892,39.4959992 107.916,39.3360008 107.916,39.176 C107.916,38.8639984 107.814001,38.6000011 107.61,38.384 C107.405999,38.1679989 107.068002,38.06 106.596,38.06 L105.564,38.06 L105.564,37.484 L106.416,37.484 C106.776002,37.484 107.083999,37.388001 107.34,37.196 C107.596001,37.003999 107.724,36.7240018 107.724,36.356 C107.724,36.2439994 107.706,36.1240006 107.67,35.996 C107.634,35.8679994 107.560001,35.7500005 107.448,35.642 C107.335999,35.5339995 107.180001,35.4460003 106.98,35.378 C106.779999,35.3099997 106.520002,35.276 106.2,35.276 C105.631997,35.276 105.222001,35.4019987 104.97,35.654 C104.717999,35.9060013 104.572,36.2239981 104.532,36.608 L103.788,36.608 C103.82,36.2319981 103.907999,35.9180013 104.052,35.666 C104.196001,35.4139987 104.375999,35.2120008 104.592,35.06 C104.808001,34.9079992 105.055999,34.8000003 105.336,34.736 C105.616001,34.6719997 105.907998,34.64 106.212,34.64 C106.532002,34.64 106.829999,34.6699997 107.106,34.73 C107.382001,34.7900003 107.623999,34.8859993 107.832,35.018 C108.040001,35.1500007 108.203999,35.3219989 108.324,35.534 C108.444001,35.7460011 108.504,36.0039985 108.504,36.308 C108.504,36.4920009 108.476,36.6599992 108.42,36.812 C108.364,36.9640008 108.29,37.0999994 108.198,37.22 C108.106,37.3400006 108.000001,37.4399996 107.88,37.52 C107.759999,37.6000004 107.636001,37.6519999 107.508,37.676 L107.508,37.7 C107.652001,37.7240001 107.795999,37.7679997 107.94,37.832 C108.084001,37.8960003 108.211999,37.9859994 108.324,38.102 C108.436001,38.2180006 108.528,38.3619991 108.6,38.534 C108.672,38.7060009 108.708,38.9119988 108.708,39.152 C108.708,39.4880017 108.640001,39.7819987 108.504,40.034 C108.367999,40.2860013 108.186001,40.4959992 107.958,40.664 C107.729999,40.8320008 107.466001,40.9579996 107.166,41.042 C106.865998,41.1260004 106.552002,41.168 106.224,41.168 L106.224,41.168 Z M110.86,34.808 L111.616,34.808 L111.616,37.436 L115.132,37.436 L115.132,34.808 L115.888,34.808 L115.888,41 L115.132,41 L115.132,38.072 L111.616,38.072 L111.616,41 L110.86,41 L110.86,34.808 Z M120.056,41.168 C119.767999,41.168 119.498001,41.1340003 119.246,41.066 C118.993999,40.9979997 118.774001,40.8900007 118.586,40.742 C118.397999,40.5939993 118.250001,40.4060011 118.142,40.178 C118.033999,39.9499989 117.98,39.6800016 117.98,39.368 C117.98,38.9359978 118.075999,38.5980012 118.268,38.354 C118.460001,38.1099988 118.713998,37.9240006 119.03,37.796 C119.346002,37.6679994 119.701998,37.5780003 120.098,37.526 C120.494002,37.4739997 120.895998,37.4240002 121.304,37.376 C121.456001,37.3599999 121.593999,37.3400001 121.718,37.316 C121.842001,37.2919999 121.944,37.2500003 122.024,37.19 C122.104,37.1299997 122.166,37.0480005 122.21,36.944 C122.254,36.8399995 122.276,36.7040008 122.276,36.536 C122.276,36.2799987 122.234,36.0700008 122.15,35.906 C122.066,35.7419992 121.950001,35.6120005 121.802,35.516 C121.653999,35.4199995 121.482001,35.3540002 121.286,35.318 C121.089999,35.2819998 120.880001,35.264 120.656,35.264 C120.175998,35.264 119.784002,35.3779989 119.48,35.606 C119.175998,35.8340011 119.016,36.1999975 119,36.704 L118.244,36.704 C118.292,35.9759964 118.541998,35.4480016 118.994,35.12 C119.446002,34.7919984 120.031996,34.628 120.752,34.628 C121.024001,34.628 121.295999,34.6539997 121.568,34.706 C121.840001,34.7580003 122.083999,34.8559993 122.3,35 C122.516001,35.1440007 122.691999,35.3459987 122.828,35.606 C122.964001,35.8660013 123.032,36.2039979 123.032,36.62 L123.032,39.908 C123.032,40.2120015 123.179999,40.364 123.476,40.364 C123.572,40.364 123.652,40.3480002 123.716,40.316 L123.716,40.952 C123.628,40.9680001 123.55,40.98 123.482,40.988 C123.414,40.996 123.328001,41 123.224,41 C123.031999,41 122.878001,40.9740003 122.762,40.922 C122.645999,40.8699997 122.556,40.7960005 122.492,40.7 C122.428,40.6039995 122.386,40.4900007 122.366,40.358 C122.346,40.2259993 122.336,40.0800008 122.336,39.92 L122.312,39.92 C122.175999,40.120001 122.038001,40.2979992 121.898,40.454 C121.757999,40.6100008 121.602001,40.7399995 121.43,40.844 C121.257999,40.9480005 121.060001,41.0279997 120.836,41.084 C120.611999,41.1400003 120.352001,41.168 120.056,41.168 L120.056,41.168 Z M120.116,40.544 C120.404001,40.544 120.679999,40.5000004 120.944,40.412 C121.208001,40.3239996 121.437999,40.1960008 121.634,40.028 C121.830001,39.8599992 121.985999,39.6560012 122.102,39.416 C122.218001,39.1759988 122.276,38.9040015 122.276,38.6 L122.276,37.616 L122.252,37.616 C122.204,37.7040004 122.112001,37.7679998 121.976,37.808 C121.839999,37.8480002 121.720001,37.8759999 121.616,37.892 C121.295998,37.9480003 120.966002,37.9979998 120.626,38.042 C120.285998,38.0860002 119.976001,38.1519996 119.696,38.24 C119.415999,38.3280004 119.186001,38.4559992 119.006,38.624 C118.825999,38.7920008 118.736,39.0239985 118.736,39.32 C118.736,39.512001 118.774,39.6819993 118.85,39.83 C118.926,39.9780007 119.027999,40.1059995 119.156,40.214 C119.284001,40.3220005 119.429999,40.4039997 119.594,40.46 C119.758001,40.5160003 119.931999,40.544 120.116,40.544 L120.116,40.544 Z M127.236,37.784 L125.016,34.808 L125.964,34.808 L127.728,37.16 L129.456,34.808 L130.404,34.808 L128.172,37.772 L130.584,41 L129.624,41 L127.68,38.396 L125.772,41 L124.836,41 L127.236,37.784 Z M132.328,34.808 L133.084,34.808 L133.084,41 L132.328,41 L132.328,34.808 Z M132.328,32.432 L133.084,32.432 L133.084,33.644 L132.328,33.644 L132.328,32.432 Z M134.888,40.364 L135.62,40.364 C135.916001,39.8119972 136.131999,39.1560038 136.268,38.396 C136.404001,37.6359962 136.472,36.7120054 136.472,35.624 L136.472,34.808 L140.636,34.808 L140.636,40.364 L141.56,40.364 L141.56,42.968 L140.804,42.968 L140.804,41 L135.644,41 L135.644,42.968 L134.888,42.968 L134.888,40.364 Z M139.88,40.364 L139.88,35.444 L137.204,35.444 L137.204,35.876 C137.204,36.9160052 137.128001,37.8099963 136.976,38.558 C136.823999,39.3060037 136.632001,39.9079977 136.4,40.364 L139.88,40.364 Z M145.992,41.168 C145.519998,41.168 145.102002,41.0820009 144.738,40.91 C144.373998,40.7379991 144.068001,40.5040015 143.82,40.208 C143.571999,39.9119985 143.384001,39.566002 143.256,39.17 C143.127999,38.773998 143.064,38.3520022 143.064,37.904 C143.064,37.4639978 143.127999,37.044002 143.256,36.644 C143.384001,36.243998 143.571999,35.8960015 143.82,35.6 C144.068001,35.3039985 144.373998,35.0680009 144.738,34.892 C145.102002,34.7159991 145.519998,34.628 145.992,34.628 C146.464002,34.628 146.881998,34.7159991 147.246,34.892 C147.610002,35.0680009 147.915999,35.3039985 148.164,35.6 C148.412001,35.8960015 148.599999,36.243998 148.728,36.644 C148.856001,37.044002 148.92,37.4639978 148.92,37.904 C148.92,38.3520022 148.856001,38.773998 148.728,39.17 C148.599999,39.566002 148.412001,39.9119985 148.164,40.208 C147.915999,40.5040015 147.610002,40.7379991 147.246,40.91 C146.881998,41.0820009 146.464002,41.168 145.992,41.168 L145.992,41.168 Z M145.992,40.544 C146.352002,40.544 146.667999,40.4680008 146.94,40.316 C147.212001,40.1639992 147.437999,39.9640012 147.618,39.716 C147.798001,39.4679988 147.934,39.1860016 148.026,38.87 C148.118,38.5539984 148.164,38.2320016 148.164,37.904 C148.164,37.5759984 148.118,37.2540016 148.026,36.938 C147.934,36.6219984 147.798001,36.3400012 147.618,36.092 C147.437999,35.8439988 147.212001,35.6440008 146.94,35.492 C146.667999,35.3399992 146.352002,35.264 145.992,35.264 C145.631998,35.264 145.316001,35.3399992 145.044,35.492 C144.771999,35.6440008 144.546001,35.8439988 144.366,36.092 C144.185999,36.3400012 144.05,36.6219984 143.958,36.938 C143.866,37.2540016 143.82,37.5759984 143.82,37.904 C143.82,38.2320016 143.866,38.5539984 143.958,38.87 C144.05,39.1860016 144.185999,39.4679988 144.366,39.716 C144.546001,39.9640012 144.771999,40.1639992 145.044,40.316 C145.316001,40.4680008 145.631998,40.544 145.992,40.544 L145.992,40.544 Z M151.048,34.808 L151.804,34.808 L151.804,37.988 L155.236,34.808 L156.244,34.808 L153.616,37.232 L156.4,41 L155.452,41 L153.064,37.748 L151.804,38.912 L151.804,41 L151.048,41 L151.048,34.808 Z" id="сервіс-знахідок" fill="#59A7BE"></path>
                    <path d="M59.656,7.364 L59.656,24.5 L71.776,24.5 L71.776,21.332 L63.424,21.332 L63.424,7.364 L59.656,7.364 Z M76.142,16.004 C76.142,15.2519962 76.2259992,14.5240035 76.394,13.82 C76.5620009,13.1159965 76.8299982,12.4880028 77.198,11.936 C77.5660019,11.3839972 78.0459971,10.9440016 78.638,10.616 C79.230003,10.2879984 79.9499958,10.124 80.798,10.124 C81.6460043,10.124 82.3659971,10.2879984 82.958,10.616 C83.550003,10.9440016 84.0299982,11.3839972 84.398,11.936 C84.7660019,12.4880028 85.0339992,13.1159965 85.202,13.82 C85.3700009,14.5240035 85.454,15.2519962 85.454,16.004 C85.454,16.7240036 85.3700009,17.4239966 85.202,18.104 C85.0339992,18.7840034 84.7660019,19.3959973 84.398,19.94 C84.0299982,20.4840027 83.550003,20.9199984 82.958,21.248 C82.3659971,21.5760016 81.6460043,21.74 80.798,21.74 C79.9499958,21.74 79.230003,21.5760016 78.638,21.248 C78.0459971,20.9199984 77.5660019,20.4840027 77.198,19.94 C76.8299982,19.3959973 76.5620009,18.7840034 76.394,18.104 C76.2259992,17.4239966 76.142,16.7240036 76.142,16.004 L76.142,16.004 Z M72.374,16.004 C72.374,17.2520062 72.5659981,18.4159946 72.95,19.496 C73.3340019,20.5760054 73.8859964,21.515996 74.606,22.316 C75.3260036,23.116004 76.2099948,23.7439977 77.258,24.2 C78.3060053,24.6560023 79.4859935,24.884 80.798,24.884 C82.1260067,24.884 83.3099948,24.6560023 84.35,24.2 C85.3900052,23.7439977 86.2699964,23.116004 86.99,22.316 C87.7100036,21.515996 88.2619981,20.5760054 88.646,19.496 C89.0300019,18.4159946 89.222,17.2520062 89.222,16.004 C89.222,14.7239936 89.0300019,13.5360055 88.646,12.44 C88.2619981,11.3439945 87.7100036,10.3880041 86.99,9.572 C86.2699964,8.75599592 85.3900052,8.11600232 84.35,7.652 C83.3099948,7.18799768 82.1260067,6.956 80.798,6.956 C79.4859935,6.956 78.3060053,7.18799768 77.258,7.652 C76.2099948,8.11600232 75.3260036,8.75599592 74.606,9.572 C73.8859964,10.3880041 73.3340019,11.3439945 72.95,12.44 C72.5659981,13.5360055 72.374,14.7239936 72.374,16.004 L72.374,16.004 Z M93.588,18.812 L89.94,18.812 C89.924,19.8680053 90.115998,20.7799962 90.516,21.548 C90.916002,22.3160038 91.4559966,22.9479975 92.136,23.444 C92.8160034,23.9400025 93.5999956,24.3039988 94.488,24.536 C95.3760045,24.7680012 96.2919953,24.884 97.236,24.884 C98.4040059,24.884 99.4319956,24.7480014 100.32,24.476 C101.208004,24.2039986 101.951997,23.8240024 102.552,23.336 C103.152003,22.8479976 103.603999,22.2680034 103.908,21.596 C104.212002,20.9239966 104.364,20.1960039 104.364,19.412 C104.364,18.4519952 104.160002,17.6640031 103.752,17.048 C103.343998,16.4319969 102.860003,15.9400018 102.3,15.572 C101.739997,15.2039982 101.176003,14.9360008 100.608,14.768 C100.039997,14.5999992 99.5960016,14.4840003 99.276,14.42 C98.2039947,14.1479986 97.3360034,13.9240009 96.672,13.748 C96.0079967,13.5719991 95.4880019,13.3960009 95.112,13.22 C94.7359982,13.0439991 94.4840007,12.852001 94.356,12.644 C94.2279994,12.435999 94.164,12.1640017 94.164,11.828 C94.164,11.4599982 94.2439992,11.1560012 94.404,10.916 C94.5640008,10.6759988 94.7679988,10.4760008 95.016,10.316 C95.2640013,10.1559992 95.5399985,10.0440003 95.844,9.98 C96.1480016,9.91599968 96.4519985,9.884 96.756,9.884 C97.2200024,9.884 97.6479981,9.9239996 98.04,10.004 C98.432002,10.0840004 98.7799985,10.219999 99.084,10.412 C99.3880016,10.604001 99.6319991,10.8679983 99.816,11.204 C100.000001,11.5400017 100.108,11.9639974 100.14,12.476 L103.788,12.476 C103.788,11.483995 103.600002,10.6400035 103.224,9.944 C102.847998,9.24799652 102.340003,8.67600224 101.7,8.228 C101.059997,7.77999776 100.328004,7.456001 99.504,7.256 C98.6799959,7.055999 97.8200045,6.956 96.924,6.956 C96.1559962,6.956 95.3880039,7.05999896 94.62,7.268 C93.8519962,7.47600104 93.1640031,7.79599784 92.556,8.228 C91.947997,8.66000216 91.4560019,9.19999676 91.08,9.848 C90.7039982,10.4960032 90.516,11.2599956 90.516,12.14 C90.516,12.9240039 90.6639986,13.5919972 90.96,14.144 C91.2560015,14.6960028 91.6439976,15.1559982 92.124,15.524 C92.6040024,15.8920018 93.147997,16.1919988 93.756,16.424 C94.3640031,16.6560012 94.9879968,16.8519992 95.628,17.012 C96.2520032,17.1880009 96.867997,17.3479993 97.476,17.492 C98.0840031,17.6360007 98.6279976,17.803999 99.108,17.996 C99.5880024,18.188001 99.9759986,18.4279986 100.272,18.716 C100.568002,19.0040014 100.716,19.3799977 100.716,19.844 C100.716,20.2760022 100.604001,20.6319986 100.38,20.912 C100.155999,21.1920014 99.8760017,21.4119992 99.54,21.572 C99.2039984,21.7320008 98.844002,21.8399997 98.46,21.896 C98.0759981,21.9520003 97.7160017,21.98 97.38,21.98 C96.8839976,21.98 96.4040024,21.9200006 95.94,21.8 C95.4759977,21.6799994 95.0720018,21.4960012 94.728,21.248 C94.3839983,20.9999988 94.1080011,20.676002 93.9,20.276 C93.691999,19.875998 93.588,19.3880029 93.588,18.812 L93.588,18.812 Z M109.618,10.532 L109.618,24.5 L113.386,24.5 L113.386,10.532 L118.522,10.532 L118.522,7.364 L104.482,7.364 L104.482,10.532 L109.618,10.532 Z M119.576,7.364 L130.328,7.364 L130.328,8.276 L120.632,8.276 L120.632,15.14 L129.368,15.14 L129.368,16.052 L120.632,16.052 L120.632,24.5 L119.576,24.5 L119.576,7.364 Z M146.67,15.932 C146.67,17.1800062 146.486002,18.3519945 146.118,19.448 C145.749998,20.5440055 145.218004,21.495996 144.522,22.304 C143.825997,23.112004 142.974005,23.7479977 141.966,24.212 C140.957995,24.6760023 139.814006,24.908 138.534,24.908 C137.253994,24.908 136.106005,24.6760023 135.09,24.212 C134.073995,23.7479977 133.218004,23.112004 132.522,22.304 C131.825997,21.495996 131.294002,20.5440055 130.926,19.448 C130.557998,18.3519945 130.374,17.1800062 130.374,15.932 C130.374,14.6839938 130.557998,13.5120055 130.926,12.416 C131.294002,11.3199945 131.825997,10.368004 132.522,9.56 C133.218004,8.75199596 134.073995,8.11600232 135.09,7.652 C136.106005,7.18799768 137.253994,6.956 138.534,6.956 C139.814006,6.956 140.957995,7.18799768 141.966,7.652 C142.974005,8.11600232 143.825997,8.75199596 144.522,9.56 C145.218004,10.368004 145.749998,11.3199945 146.118,12.416 C146.486002,13.5120055 146.67,14.6839938 146.67,15.932 L146.67,15.932 Z M131.43,15.932 C131.43,17.0360055 131.589998,18.0759951 131.91,19.052 C132.230002,20.0280049 132.693997,20.8799964 133.302,21.608 C133.910003,22.3360036 134.653996,22.9159978 135.534,23.348 C136.414004,23.7800022 137.413994,23.996 138.534,23.996 C139.654006,23.996 140.649996,23.7800022 141.522,23.348 C142.394004,22.9159978 143.133997,22.3360036 143.742,21.608 C144.350003,20.8799964 144.813998,20.0280049 145.134,19.052 C145.454002,18.0759951 145.614,17.0360055 145.614,15.932 C145.614,14.8279945 145.454002,13.7880049 145.134,12.812 C144.813998,11.8359951 144.350003,10.9840036 143.742,10.256 C143.133997,9.52799636 142.394004,8.94800216 141.522,8.516 C140.649996,8.08399784 139.654006,7.868 138.534,7.868 C137.413994,7.868 136.414004,8.08399784 135.534,8.516 C134.653996,8.94800216 133.910003,9.52799636 133.302,10.256 C132.693997,10.9840036 132.230002,11.8359951 131.91,12.812 C131.589998,13.7880049 131.43,14.8279945 131.43,15.932 L131.43,15.932 Z M149.212,7.364 L149.212,17.636 C149.212,17.9720017 149.228,18.3639978 149.26,18.812 C149.292,19.2600022 149.371999,19.7199976 149.5,20.192 C149.628001,20.6640024 149.807999,21.1279977 150.04,21.584 C150.272001,22.0400023 150.587998,22.4479982 150.988,22.808 C151.388002,23.1680018 151.879997,23.4559989 152.464,23.672 C153.048003,23.8880011 153.755996,23.996 154.588,23.996 C155.644005,23.996 156.527997,23.8480015 157.24,23.552 C157.952004,23.2559985 158.527998,22.8320028 158.968,22.28 C159.408002,21.7279972 159.723999,21.0600039 159.916,20.276 C160.108001,19.4919961 160.204,18.6120049 160.204,17.636 L160.204,7.364 L161.26,7.364 L161.26,17.636 C161.26,18.6600051 161.152001,19.6119956 160.936,20.492 C160.719999,21.3720044 160.356003,22.1399967 159.844,22.796 C159.331998,23.4520033 158.648004,23.9679981 157.792,24.344 C156.935996,24.7200019 155.868007,24.908 154.588,24.908 C153.579995,24.908 152.716004,24.7800013 151.996,24.524 C151.275997,24.2679987 150.680002,23.936002 150.208,23.528 C149.735998,23.119998 149.364001,22.6520026 149.092,22.124 C148.819999,21.5959974 148.612001,21.0640027 148.468,20.528 C148.323999,19.9919973 148.236,19.4720025 148.204,18.968 C148.172,18.4639975 148.156,18.0200019 148.156,17.636 L148.156,7.364 L149.212,7.364 Z M163.514,7.364 L164.834,7.364 L175.658,23.084 L175.706,23.084 L175.706,7.364 L176.762,7.364 L176.762,24.5 L175.514,24.5 L164.618,8.66 L164.57,8.66 L164.57,24.5 L163.514,24.5 L163.514,7.364 Z M179.016,7.364 L184.632,7.364 C186.168008,7.364 187.443995,7.6039976 188.46,8.084 C189.476005,8.5640024 190.287997,9.203996 190.896,10.004 C191.504003,10.804004 191.931999,11.7159949 192.18,12.74 C192.428001,13.7640051 192.552,14.8199946 192.552,15.908 C192.552,17.1240061 192.396002,18.2559948 192.084,19.304 C191.771999,20.3520052 191.288003,21.2599962 190.632,22.028 C189.975997,22.7960038 189.148005,23.3999978 188.148,23.84 C187.147995,24.2800022 185.960007,24.5 184.584,24.5 L179.016,24.5 L179.016,7.364 Z M184.68,23.588 C185.480004,23.588 186.283996,23.4640012 187.092,23.216 C187.900004,22.9679988 188.631997,22.5520029 189.288,21.968 C189.944003,21.3839971 190.475998,20.6000049 190.884,19.616 C191.292002,18.6319951 191.496,17.3960074 191.496,15.908 C191.496,14.7399942 191.380001,13.7400042 191.148,12.908 C190.915999,12.0759958 190.612002,11.3760028 190.236,10.808 C189.859998,10.2399972 189.428003,9.79200164 188.94,9.464 C188.451998,9.13599836 187.948003,8.88400088 187.428,8.708 C186.907998,8.53199912 186.388003,8.41600028 185.868,8.36 C185.347998,8.30399972 184.880002,8.276 184.464,8.276 L180.072,8.276 L180.072,23.588 L184.68,23.588 Z" id="LOSTFOUND" fill="#0093AE"></path>
                </g>
            </g>
        </g>
    </g>
</svg>