<?xml version="1.0" encoding="UTF-8" standalone="no"?>
<svg width="97px" height="107px" viewBox="0 0 97 107" version="1.1" xmlns="http://www.w3.org/2000/svg" xmlns:xlink="http://www.w3.org/1999/xlink" xmlns:sketch="http://www.bohemiancoding.com/sketch/ns">
    <!-- Generator: Sketch 3.3 (11970) - http://www.bohemiancoding.com/sketch -->
    <title>logo_top</title>
    <desc>Created with Sketch.</desc>
    <defs></defs>
    <g id="Page-1" stroke="none" stroke-width="1" fill="none" fill-rule="evenodd" sketch:type="MSPage">
        <g id="11.about" sketch:type="MSArtboardGroup" transform="translate(-675.000000, -59.000000)">
            <g id="підтримай-проект-+------+-Fill-1-+-Fill-2" sketch:type="MSLayerGroup" transform="translate(208.000000, 56.000000)">
                <g id="logo_top" transform="translate(467.000000, 3.000000)" sketch:type="MSShapeGroup">
                    <g id="Fill-1-+-Fill-2" transform="translate(0.000000, 21.000000)">
                        <path d="M19.3108618,0.208222686 L19.3108618,35.9842688 C19.3108618,51.2521035 29.9065999,64.4773587 44.8165232,67.8193867 L44.8165232,85.9498545 L37.5629727,84.0652419 C15.6098463,78.36058 0.284727273,58.5584114 0.284727273,35.8936096 L0.284727273,0.208222686 L19.3108618,0.208222686" id="Fill-1" fill="#2F90AD"></path>
                        <path d="M95.9653281,0.36756311 L95.9653281,9.80161513 C95.9653281,15.1793545 91.6373946,19.5570953 86.2549741,19.6257765 L64.3540908,19.901875 L64.3540908,33.9815245 L91.8683643,33.1903169 L91.8683643,42.2837101 C91.8683643,47.1271095 88.0656121,51.1202355 83.2234959,51.3592462 L64.3692139,52.2905635 L64.3692139,64.6037321 C64.3692139,73.0625109 59.0720322,80.6160711 51.1145738,83.5048032 L44.8165232,85.7905141 L44.8165232,0.36756311 L95.9653281,0.36756311" id="Fill-2" fill="#d5e2e8"></path>
                    </g>
                    <path d="M4.336,9.168 C3.86399764,9.168 3.44600182,9.08200086 3.082,8.91 C2.71799818,8.73799914 2.41200124,8.50400148 2.164,8.208 C1.91599876,7.91199852 1.72800064,7.56600198 1.6,7.17 C1.47199936,6.77399802 1.408,6.35200224 1.408,5.904 C1.408,5.4639978 1.47199936,5.044002 1.6,4.644 C1.72800064,4.243998 1.91599876,3.89600148 2.164,3.6 C2.41200124,3.30399852 2.71799818,3.06800088 3.082,2.892 C3.44600182,2.71599912 3.86399764,2.628 4.336,2.628 C5.00000332,2.628 5.5619977,2.80399824 6.022,3.156 C6.4820023,3.50800176 6.75599956,4.03999644 6.844,4.752 L6.088,4.752 C5.98399948,4.28799768 5.7920014,3.92400132 5.512,3.66 C5.2319986,3.39599868 4.84000252,3.264 4.336,3.264 C3.9759982,3.264 3.66000136,3.33999924 3.388,3.492 C3.11599864,3.64400076 2.8900009,3.84399876 2.71,4.092 C2.5299991,4.34000124 2.39400046,4.62199842 2.302,4.938 C2.20999954,5.25400158 2.164,5.57599836 2.164,5.904 C2.164,6.23200164 2.20999954,6.55399842 2.302,6.87 C2.39400046,7.18600158 2.5299991,7.46799876 2.71,7.716 C2.8900009,7.96400124 3.11599864,8.16399924 3.388,8.316 C3.66000136,8.46800076 3.9759982,8.544 4.336,8.544 C4.56800116,8.544 4.78799896,8.50000044 4.996,8.412 C5.20400104,8.32399956 5.3879992,8.20200078 5.548,8.046 C5.7080008,7.88999922 5.83999948,7.70400108 5.944,7.488 C6.04800052,7.27199892 6.11199988,7.03600128 6.136,6.78 L6.892,6.78 C6.78799948,7.53200376 6.51200224,8.1179979 6.064,8.538 C5.61599776,8.9580021 5.04000352,9.168 4.336,9.168 L4.336,9.168 Z M11.432,9.168 C10.9359975,9.168 10.5120018,9.08200086 10.16,8.91 C9.80799824,8.73799914 9.52000112,8.5020015 9.296,8.202 C9.07199888,7.9019985 8.90600054,7.55600196 8.798,7.164 C8.68999946,6.77199804 8.636,6.35200224 8.636,5.904 C8.636,5.49599796 8.68999946,5.09600196 8.798,4.704 C8.90600054,4.31199804 9.07199888,3.96200154 9.296,3.654 C9.52000112,3.34599846 9.80799824,3.09800094 10.16,2.91 C10.5120018,2.72199906 10.9359975,2.628 11.432,2.628 C11.9280025,2.628 12.3519982,2.727999 12.704,2.928 C13.0560018,3.128001 13.3419989,3.38999838 13.562,3.714 C13.7820011,4.03800162 13.9399995,4.4099979 14.036,4.83 C14.1320005,5.2500021 14.1720001,5.67599784 14.156,6.108 L9.392,6.108 C9.392,6.3880014 9.42999962,6.67199856 9.506,6.96 C9.58200038,7.24800144 9.70399916,7.50799884 9.872,7.74 C10.0400008,7.97200116 10.2519987,8.16399924 10.508,8.316 C10.7640013,8.46800076 11.0719982,8.544 11.432,8.544 C11.9840028,8.544 12.4159984,8.40000144 12.728,8.112 C13.0400016,7.82399856 13.2559994,7.4400024 13.376,6.96 L14.132,6.96 C13.9719992,7.66400352 13.6780021,8.20799808 13.25,8.592 C12.8219979,8.97600192 12.2160039,9.168 11.432,9.168 L11.432,9.168 Z M13.4,5.472 C13.392,5.18399856 13.3420005,4.90800132 13.25,4.644 C13.1579995,4.37999868 13.0280008,4.14600102 12.86,3.942 C12.6919992,3.73799898 12.4880012,3.57400062 12.248,3.45 C12.0079988,3.32599938 11.7360015,3.264 11.432,3.264 C11.1199984,3.264 10.8440012,3.32599938 10.604,3.45 C10.3639988,3.57400062 10.1600008,3.73799898 9.992,3.942 C9.82399916,4.14600102 9.6900005,4.38199866 9.59,4.65 C9.4899995,4.91800134 9.42400016,5.1919986 9.392,5.472 L13.4,5.472 Z M16.176,2.808 L16.872,2.808 L16.872,3.984 L16.896,3.984 C17.0720009,3.55199784 17.357998,3.21800118 17.754,2.982 C18.150002,2.74599882 18.5999975,2.628 19.104,2.628 C19.5760024,2.628 19.9859983,2.71599912 20.334,2.892 C20.6820017,3.06800088 20.9719988,3.3059985 21.204,3.606 C21.4360012,3.9060015 21.6079994,4.25399802 21.72,4.65 C21.8320006,5.04600198 21.888,5.4639978 21.888,5.904 C21.888,6.35200224 21.8320006,6.77199804 21.72,7.164 C21.6079994,7.55600196 21.4360012,7.9019985 21.204,8.202 C20.9719988,8.5020015 20.6820017,8.73799914 20.334,8.91 C19.9859983,9.08200086 19.5760024,9.168 19.104,9.168 C18.8719988,9.168 18.6460011,9.14000028 18.426,9.084 C18.2059989,9.02799972 18.000001,8.94400056 17.808,8.832 C17.615999,8.71999944 17.4460007,8.58000084 17.298,8.412 C17.1499993,8.24399916 17.0360004,8.04800112 16.956,7.824 L16.932,7.824 L16.932,11.28 L16.176,11.28 L16.176,2.808 Z M19.104,8.544 C19.4640018,8.544 19.7719987,8.46600078 20.028,8.31 C20.2840013,8.15399922 20.4939992,7.95200124 20.658,7.704 C20.8220008,7.45599876 20.9419996,7.17400158 21.018,6.858 C21.0940004,6.54199842 21.132,6.2240016 21.132,5.904 C21.132,5.5839984 21.0940004,5.26600158 21.018,4.95 C20.9419996,4.63399842 20.8220008,4.35200124 20.658,4.104 C20.4939992,3.85599876 20.2840013,3.65400078 20.028,3.498 C19.7719987,3.34199922 19.4640018,3.264 19.104,3.264 C18.6799979,3.264 18.3300014,3.33599928 18.054,3.48 C17.7779986,3.62400072 17.5560008,3.8159988 17.388,4.056 C17.2199992,4.2960012 17.1020003,4.5759984 17.034,4.896 C16.9659997,5.2160016 16.932,5.55199824 16.932,5.904 C16.932,6.2240016 16.9699996,6.54199842 17.046,6.858 C17.1220004,7.17400158 17.2459991,7.45599876 17.418,7.704 C17.5900009,7.95200124 17.8139986,8.15399922 18.09,8.31 C18.3660014,8.46600078 18.703998,8.544 19.104,8.544 L19.104,8.544 Z M24.052,2.808 L26.884,2.808 C27.5160032,2.808 28.0039983,2.93199876 28.348,3.18 C28.6920017,3.42800124 28.864,3.7919976 28.864,4.272 C28.864,4.64000184 28.7700009,4.94799876 28.582,5.196 C28.3939991,5.44400124 28.1320017,5.61599952 27.796,5.712 L27.796,5.736 C28.204002,5.80800036 28.5239988,5.96799876 28.756,6.216 C28.9880012,6.46400124 29.104,6.81599772 29.104,7.272 C29.104,7.8320028 28.9160019,8.25999852 28.54,8.556 C28.1639981,8.85200148 27.6120036,9 26.884,9 L24.052,9 L24.052,2.808 Z M26.8,8.364 C27.3280026,8.364 27.7179987,8.26600098 27.97,8.07 C28.2220013,7.87399902 28.348,7.58000196 28.348,7.188 C28.348,6.8279982 28.2220013,6.55200096 27.97,6.36 C27.7179987,6.16799904 27.3280026,6.072 26.8,6.072 L24.808,6.072 L24.808,8.364 L26.8,8.364 Z M26.8,5.484 C27.2320022,5.484 27.5579989,5.39200092 27.778,5.208 C27.9980011,5.02399908 28.108,4.77600156 28.108,4.464 C28.108,3.7839966 27.6720044,3.444 26.8,3.444 L24.808,3.444 L24.808,5.484 L26.8,5.484 Z M31.28,2.808 L32.036,2.808 L32.036,9 L31.28,9 L31.28,2.808 Z M31.28,0.432 L32.036,0.432 L32.036,1.644 L31.28,1.644 L31.28,0.432 Z M37.104,9.168 C36.6319976,9.168 36.2140018,9.08200086 35.85,8.91 C35.4859982,8.73799914 35.1800012,8.50400148 34.932,8.208 C34.6839988,7.91199852 34.4960006,7.56600198 34.368,7.17 C34.2399994,6.77399802 34.176,6.35200224 34.176,5.904 C34.176,5.4639978 34.2399994,5.044002 34.368,4.644 C34.4960006,4.243998 34.6839988,3.89600148 34.932,3.6 C35.1800012,3.30399852 35.4859982,3.06800088 35.85,2.892 C36.2140018,2.71599912 36.6319976,2.628 37.104,2.628 C37.7680033,2.628 38.3299977,2.80399824 38.79,3.156 C39.2500023,3.50800176 39.5239996,4.03999644 39.612,4.752 L38.856,4.752 C38.7519995,4.28799768 38.5600014,3.92400132 38.28,3.66 C37.9999986,3.39599868 37.6080025,3.264 37.104,3.264 C36.7439982,3.264 36.4280014,3.33999924 36.156,3.492 C35.8839986,3.64400076 35.6580009,3.84399876 35.478,4.092 C35.2979991,4.34000124 35.1620005,4.62199842 35.07,4.938 C34.9779995,5.25400158 34.932,5.57599836 34.932,5.904 C34.932,6.23200164 34.9779995,6.55399842 35.07,6.87 C35.1620005,7.18600158 35.2979991,7.46799876 35.478,7.716 C35.6580009,7.96400124 35.8839986,8.16399924 36.156,8.316 C36.4280014,8.46800076 36.7439982,8.544 37.104,8.544 C37.3360012,8.544 37.555999,8.50000044 37.764,8.412 C37.972001,8.32399956 38.1559992,8.20200078 38.316,8.046 C38.4760008,7.88999922 38.6079995,7.70400108 38.712,7.488 C38.8160005,7.27199892 38.8799999,7.03600128 38.904,6.78 L39.66,6.78 C39.5559995,7.53200376 39.2800022,8.1179979 38.832,8.538 C38.3839978,8.9580021 37.8080035,9.168 37.104,9.168 L37.104,9.168 Z" id="сервіс-знахідок-copy-2" fill="#2F90AD"></path>
                    <path d="M48.228,9.168 C47.4039959,9.168 46.7820021,8.9780019 46.362,8.598 C45.9419979,8.2179981 45.7120002,7.70400324 45.672,7.056 L46.428,7.056 C46.4600002,7.28000112 46.5159996,7.48399908 46.596,7.668 C46.6760004,7.85200092 46.7879993,8.00799936 46.932,8.136 C47.0760007,8.26400064 47.2539989,8.36199966 47.466,8.43 C47.6780011,8.49800034 47.9359985,8.532 48.24,8.532 C48.5840017,8.532 48.8639989,8.4920004 49.08,8.412 C49.2960011,8.3319996 49.4659994,8.22600066 49.59,8.094 C49.7140006,7.96199934 49.7999998,7.8160008 49.848,7.656 C49.8960002,7.4959992 49.92,7.3360008 49.92,7.176 C49.92,6.86399844 49.818001,6.60000108 49.614,6.384 C49.409999,6.16799892 49.0720024,6.06 48.6,6.06 L47.568,6.06 L47.568,5.484 L48.42,5.484 C48.7800018,5.484 49.0879987,5.38800096 49.344,5.196 C49.6000013,5.00399904 49.728,4.72400184 49.728,4.356 C49.728,4.24399944 49.7100002,4.12400064 49.674,3.996 C49.6379998,3.86799936 49.5640006,3.75000054 49.452,3.642 C49.3399994,3.53399946 49.184001,3.44600034 48.984,3.378 C48.783999,3.30999966 48.5240016,3.276 48.204,3.276 C47.6359972,3.276 47.2260013,3.40199874 46.974,3.654 C46.7219987,3.90600126 46.5760002,4.22399808 46.536,4.608 L45.792,4.608 C45.8240002,4.23199812 45.9119993,3.91800126 46.056,3.666 C46.2000007,3.41399874 46.3799989,3.21200076 46.596,3.06 C46.8120011,2.90799924 47.0599986,2.80000032 47.34,2.736 C47.6200014,2.67199968 47.9119985,2.64 48.216,2.64 C48.5360016,2.64 48.8339986,2.6699997 49.11,2.73 C49.3860014,2.7900003 49.627999,2.88599934 49.836,3.018 C50.044001,3.15000066 50.2079994,3.32199894 50.328,3.534 C50.4480006,3.74600106 50.508,4.00399848 50.508,4.308 C50.508,4.49200092 50.4800003,4.65999924 50.424,4.812 C50.3679997,4.96400076 50.2940005,5.0999994 50.202,5.22 C50.1099995,5.3400006 50.0040006,5.4399996 49.884,5.52 C49.7639994,5.6000004 49.6400006,5.65199988 49.512,5.676 L49.512,5.7 C49.6560007,5.72400012 49.7999993,5.76799968 49.944,5.832 C50.0880007,5.89600032 50.2159994,5.98599942 50.328,6.102 C50.4400006,6.21800058 50.5319996,6.36199914 50.604,6.534 C50.6760004,6.70600086 50.712,6.9119988 50.712,7.152 C50.712,7.48800168 50.6440007,7.78199874 50.508,8.034 C50.3719993,8.28600126 50.1900011,8.49599916 49.962,8.664 C49.7339989,8.83200084 49.4700015,8.95799958 49.17,9.042 C48.8699985,9.12600042 48.5560016,9.168 48.228,9.168 L48.228,9.168 Z M52.614,2.808 L53.37,2.808 L53.37,5.436 L56.886,5.436 L56.886,2.808 L57.642,2.808 L57.642,9 L56.886,9 L56.886,6.072 L53.37,6.072 L53.37,9 L52.614,9 L52.614,2.808 Z M61.56,9.168 C61.2719986,9.168 61.0020013,9.13400034 60.75,9.066 C60.4979987,8.99799966 60.2780009,8.89000074 60.09,8.742 C59.9019991,8.59399926 59.7540005,8.40600114 59.646,8.178 C59.5379995,7.94999886 59.484,7.68000156 59.484,7.368 C59.484,6.93599784 59.579999,6.59800122 59.772,6.354 C59.964001,6.10999878 60.2179984,5.92400064 60.534,5.796 C60.8500016,5.66799936 61.205998,5.57800026 61.602,5.526 C61.998002,5.47399974 62.399998,5.42400024 62.808,5.376 C62.9600008,5.35999992 63.0979994,5.34000012 63.222,5.316 C63.3460006,5.29199988 63.4479996,5.2500003 63.528,5.19 C63.6080004,5.1299997 63.6699998,5.04800052 63.714,4.944 C63.7580002,4.83999948 63.78,4.70400084 63.78,4.536 C63.78,4.27999872 63.7380004,4.07000082 63.654,3.906 C63.5699996,3.74199918 63.4540007,3.61200048 63.306,3.516 C63.1579993,3.41999952 62.986001,3.35400018 62.79,3.318 C62.593999,3.28199982 62.3840011,3.264 62.16,3.264 C61.6799976,3.264 61.2880015,3.37799886 60.984,3.606 C60.6799985,3.83400114 60.5200001,4.19999748 60.504,4.704 L59.748,4.704 C59.7960002,3.97599636 60.0459977,3.44800164 60.498,3.12 C60.9500023,2.79199836 61.5359964,2.628 62.256,2.628 C62.5280014,2.628 62.7999986,2.65399974 63.072,2.706 C63.3440014,2.75800026 63.5879989,2.85599928 63.804,3 C64.0200011,3.14400072 64.1959993,3.3459987 64.332,3.606 C64.4680007,3.8660013 64.536,4.20399792 64.536,4.62 L64.536,7.908 C64.536,8.21200152 64.6839985,8.364 64.98,8.364 C65.0760005,8.364 65.1559997,8.34800016 65.22,8.316 L65.22,8.952 C65.1319996,8.96800008 65.0540003,8.97999996 64.986,8.988 C64.9179997,8.99600004 64.8320005,9 64.728,9 C64.535999,9 64.3820006,8.97400026 64.266,8.922 C64.1499994,8.86999974 64.0600003,8.79600048 63.996,8.7 C63.9319997,8.60399952 63.8900001,8.49000066 63.87,8.358 C63.8499999,8.22599934 63.84,8.0800008 63.84,7.92 L63.816,7.92 C63.6799993,8.120001 63.5420007,8.29799922 63.402,8.454 C63.2619993,8.61000078 63.1060009,8.73999948 62.934,8.844 C62.7619991,8.94800052 62.5640011,9.02799972 62.34,9.084 C62.1159989,9.14000028 61.8560015,9.168 61.56,9.168 L61.56,9.168 Z M61.62,8.544 C61.9080014,8.544 62.1839987,8.50000044 62.448,8.412 C62.7120013,8.32399956 62.941999,8.19600084 63.138,8.028 C63.334001,7.85999916 63.4899994,7.6560012 63.606,7.416 C63.7220006,7.1759988 63.78,6.90400152 63.78,6.6 L63.78,5.616 L63.756,5.616 C63.7079998,5.70400044 63.6160007,5.7679998 63.48,5.808 C63.3439993,5.8480002 63.2240005,5.87599992 63.12,5.892 C62.7999984,5.94800028 62.4700017,5.99799978 62.13,6.042 C61.7899983,6.08600022 61.4800014,6.15199956 61.2,6.24 C60.9199986,6.32800044 60.6900009,6.45599916 60.51,6.624 C60.3299991,6.79200084 60.24,7.02399852 60.24,7.32 C60.24,7.51200096 60.2779996,7.68199926 60.354,7.83 C60.4300004,7.97800074 60.5319994,8.10599946 60.66,8.214 C60.7880006,8.32200054 60.9339992,8.40399972 61.098,8.46 C61.2620008,8.51600028 61.4359991,8.544 61.62,8.544 L61.62,8.544 Z M68.49,5.784 L66.27,2.808 L67.218,2.808 L68.982,5.16 L70.71,2.808 L71.658,2.808 L69.426,5.772 L71.838,9 L70.878,9 L68.934,6.396 L67.026,9 L66.09,9 L68.49,5.784 Z M73.332,2.808 L74.088,2.808 L74.088,9 L73.332,9 L73.332,2.808 Z M73.332,0.432 L74.088,0.432 L74.088,1.644 L73.332,1.644 L73.332,0.432 Z M75.642,8.364 L76.374,8.364 C76.6700015,7.81199724 76.8859993,7.1560038 77.022,6.396 C77.1580007,5.6359962 77.226,4.71200544 77.226,3.624 L77.226,2.808 L81.39,2.808 L81.39,8.364 L82.314,8.364 L82.314,10.968 L81.558,10.968 L81.558,9 L76.398,9 L76.398,10.968 L75.642,10.968 L75.642,8.364 Z M80.634,8.364 L80.634,3.444 L77.958,3.444 L77.958,3.876 C77.958,4.9160052 77.8820008,5.80999626 77.73,6.558 C77.5779992,7.30600374 77.3860012,7.90799772 77.154,8.364 L80.634,8.364 Z M86.496,9.168 C86.0239976,9.168 85.6060018,9.08200086 85.242,8.91 C84.8779982,8.73799914 84.5720012,8.50400148 84.324,8.208 C84.0759988,7.91199852 83.8880006,7.56600198 83.76,7.17 C83.6319994,6.77399802 83.568,6.35200224 83.568,5.904 C83.568,5.4639978 83.6319994,5.044002 83.76,4.644 C83.8880006,4.243998 84.0759988,3.89600148 84.324,3.6 C84.5720012,3.30399852 84.8779982,3.06800088 85.242,2.892 C85.6060018,2.71599912 86.0239976,2.628 86.496,2.628 C86.9680024,2.628 87.3859982,2.71599912 87.75,2.892 C88.1140018,3.06800088 88.4199988,3.30399852 88.668,3.6 C88.9160012,3.89600148 89.1039994,4.243998 89.232,4.644 C89.3600006,5.044002 89.424,5.4639978 89.424,5.904 C89.424,6.35200224 89.3600006,6.77399802 89.232,7.17 C89.1039994,7.56600198 88.9160012,7.91199852 88.668,8.208 C88.4199988,8.50400148 88.1140018,8.73799914 87.75,8.91 C87.3859982,9.08200086 86.9680024,9.168 86.496,9.168 L86.496,9.168 Z M86.496,8.544 C86.8560018,8.544 87.1719986,8.46800076 87.444,8.316 C87.7160014,8.16399924 87.9419991,7.96400124 88.122,7.716 C88.3020009,7.46799876 88.4379995,7.18600158 88.53,6.87 C88.6220005,6.55399842 88.668,6.23200164 88.668,5.904 C88.668,5.57599836 88.6220005,5.25400158 88.53,4.938 C88.4379995,4.62199842 88.3020009,4.34000124 88.122,4.092 C87.9419991,3.84399876 87.7160014,3.64400076 87.444,3.492 C87.1719986,3.33999924 86.8560018,3.264 86.496,3.264 C86.1359982,3.264 85.8200014,3.33999924 85.548,3.492 C85.2759986,3.64400076 85.0500009,3.84399876 84.87,4.092 C84.6899991,4.34000124 84.5540005,4.62199842 84.462,4.938 C84.3699995,5.25400158 84.324,5.57599836 84.324,5.904 C84.324,6.23200164 84.3699995,6.55399842 84.462,6.87 C84.5540005,7.18600158 84.6899991,7.46799876 84.87,7.716 C85.0500009,7.96400124 85.2759986,8.16399924 85.548,8.316 C85.8200014,8.46800076 86.1359982,8.544 86.496,8.544 L86.496,8.544 Z M91.302,2.808 L92.058,2.808 L92.058,5.988 L95.49,2.808 L96.498,2.808 L93.87,5.232 L96.654,9 L95.706,9 L93.318,5.748 L92.058,6.912 L92.058,9 L91.302,9 L91.302,2.808 Z" id="сервіс-знахідок-copy-3" fill="#FFFFFF"></path>
                </g>
            </g>
        </g>
    </g>
</svg>